<svg width="852" height="227" viewBox="0 0 852 227" fill="none" xmlns="http://www.w3.org/2000/svg">
<path d="M108.682 182V46.5508L118.516 41.9121H177.334V42.8398L169.819 58.7969H127.236V103.514H177.334V104.441L169.819 120.398H127.236V165.115H192.827V166.043L185.313 182H108.682ZM280.988 140.901V146.746C280.988 156.951 277.153 165.826 269.484 173.372C262.31 180.361 253.311 183.855 242.487 183.855C231.787 183.855 222.788 180.361 215.49 173.372C207.821 165.95 203.986 157.075 203.986 146.746V115.203C203.986 104.936 207.821 96.0609 215.49 88.5771C222.664 81.5882 231.663 78.0938 242.487 78.0938C253.063 78.0938 262.062 81.5882 269.484 88.5771C277.153 95.8135 280.988 103.792 280.988 112.513V112.698L263.361 121.048H262.433V115.203C262.433 108.09 260.485 102.895 256.589 99.6172C252.754 96.2773 248.053 94.6074 242.487 94.6074C236.921 94.6074 232.189 96.2773 228.293 99.6172C224.458 102.895 222.541 108.09 222.541 115.203V146.746C222.541 153.859 224.458 159.085 228.293 162.425C232.189 165.703 236.921 167.342 242.487 167.342C248.053 167.342 252.754 165.672 256.589 162.332C260.485 158.992 262.433 154.632 262.433 149.251L280.06 140.901H280.988ZM305.97 146.746V115.203C305.97 104.998 309.805 96.1227 317.474 88.5771C324.648 81.5882 333.647 78.0938 344.471 78.0938C355.171 78.0938 364.17 81.5882 371.468 88.5771C379.137 95.999 382.972 104.874 382.972 115.203V146.746C382.972 156.951 379.137 165.826 371.468 173.372C364.294 180.361 355.295 183.855 344.471 183.855C333.771 183.855 324.772 180.361 317.474 173.372C309.805 165.95 305.97 157.075 305.97 146.746ZM324.525 146.746C324.525 153.859 326.442 159.085 330.277 162.425C334.173 165.703 338.905 167.342 344.471 167.342C350.037 167.342 354.738 165.703 358.573 162.425C362.469 159.085 364.417 153.859 364.417 146.746V115.203C364.417 108.09 362.469 102.895 358.573 99.6172C354.738 96.2773 350.037 94.6074 344.471 94.6074C338.905 94.6074 334.173 96.2773 330.277 99.6172C326.442 102.895 324.525 108.09 324.525 115.203V146.746ZM484.956 76.2383V146.746C484.956 156.951 481.121 165.826 473.452 173.372C466.278 180.361 457.279 183.855 446.455 183.855C435.755 183.855 426.756 180.361 419.458 173.372C411.789 165.95 407.954 157.075 407.954 146.746V84.5879L425.581 76.2383H426.509V146.746C426.509 153.859 428.426 159.085 432.261 162.425C436.157 165.703 440.889 167.342 446.455 167.342C452.021 167.342 456.722 165.703 460.557 162.425C464.453 159.085 466.401 153.859 466.401 146.746V84.5879L484.028 76.2383H484.956ZM509.938 185.711V115.203C509.938 104.998 513.773 96.1227 521.442 88.5771C528.616 81.5882 537.615 78.0938 548.439 78.0938H560.963V79.0215L553.542 94.6074H548.439C542.873 94.6074 538.141 96.2773 534.245 99.6172C530.41 102.895 528.493 108.09 528.493 115.203C528.493 115.203 528.493 135.923 528.493 177.361L510.866 185.711H509.938ZM571.102 149.251L588.729 140.901H589.656V148.323C589.656 155.25 591.666 160.507 595.687 164.095C599.521 167.496 604.16 169.197 609.603 169.197C615.911 169.197 620.828 167.187 624.354 163.167C628.065 158.961 629.92 154.384 629.92 149.437C629.92 144.118 627.941 139.912 623.983 136.819C620.581 134.16 615.757 132.83 609.51 132.83C598.501 132.83 589.811 130.418 583.441 125.594C577.812 121.388 574.998 114.863 574.998 106.019C574.998 97.4215 578.926 90.3089 586.78 84.6807C592.903 80.2894 600.511 78.0938 609.603 78.0938C618.323 78.0938 625.9 80.8151 632.332 86.2578C637.28 90.5254 640.342 95.4733 641.517 101.102L623.89 109.451H622.962V106.761C622.962 103.545 622.034 100.792 620.179 98.5039C617.21 94.6693 612.973 92.752 607.469 92.752C603.078 92.752 599.49 94.1436 596.707 96.9268C593.986 99.6481 592.625 102.679 592.625 106.019C592.625 109.977 594.295 113.131 597.635 115.481C599.49 116.78 603.449 117.43 609.51 117.43C622.065 117.43 631.497 120.306 637.806 126.058C644.671 132.304 648.104 140.438 648.104 150.457C648.104 158.497 644.547 166.167 637.435 173.465C630.693 180.392 621.416 183.855 609.603 183.855C598.903 183.855 589.904 180.887 582.606 174.949C574.936 168.702 571.102 160.136 571.102 149.251ZM747.304 140.901V146.746C747.304 156.951 743.47 165.826 735.801 173.372C728.626 180.361 719.627 183.855 708.803 183.855C698.104 183.855 689.105 180.361 681.806 173.372C674.137 165.95 670.302 157.075 670.302 146.746V115.203C670.302 104.998 674.137 96.1227 681.806 88.5771C688.981 81.5882 697.98 78.0938 708.803 78.0938C719.318 78.0938 728.317 81.5882 735.801 88.5771C743.47 95.7516 747.304 103.73 747.304 112.513V112.698L690.713 157.044C691.64 159.147 692.939 160.91 694.609 162.332C698.506 165.672 703.237 167.342 708.803 167.342C714.37 167.342 719.07 165.672 722.905 162.332C726.802 158.992 728.75 154.632 728.75 149.251L746.377 140.901H747.304ZM688.857 138.304L727.636 106.854C726.647 103.823 725.101 101.411 722.998 99.6172C719.101 96.2773 714.37 94.6074 708.803 94.6074C703.237 94.6074 698.506 96.2773 694.609 99.6172C690.774 102.895 688.857 108.09 688.857 115.203V138.304Z" fill="white"/>
</svg>
