<svg width="462" height="131" viewBox="0 0 462 131" fill="none" xmlns="http://www.w3.org/2000/svg">
<path d="M1.21262 48.2341L0.945682 4.28959L4.0422 2.80591L22.6161 2.69308L22.6179 2.98604L20.2755 8.03943L6.82844 8.12111L6.91421 22.2419L22.7342 22.1458L22.736 22.4388L20.3936 27.4922L6.9466 27.5739L7.05587 45.5618L1.50558 48.2323L1.21262 48.2341ZM33.3218 8.16526C32.6339 7.4663 32.287 6.62855 32.2811 5.65201C32.275 4.65593 32.6117 3.80426 33.291 3.097C33.9703 2.38973 34.7982 2.03313 35.7748 2.0272C36.7513 2.02127 37.5835 2.36778 38.2714 3.06674C38.9592 3.7657 39.3062 4.61322 39.3122 5.6093C39.3181 6.58584 38.9815 7.42775 38.3022 8.13501C37.6228 8.84227 36.7949 9.19887 35.8184 9.2048C34.8418 9.21074 34.0096 8.86422 33.3218 8.16526ZM33.1245 48.0402L32.9306 16.1072L38.4808 13.4368L38.7738 13.435L38.9678 45.368L33.4175 48.0385L33.1245 48.0402ZM48.3375 47.9478L48.2023 25.6826C48.1827 22.46 49.3766 19.65 51.784 17.2525C54.0361 15.0318 56.8712 13.911 60.2891 13.8902C63.6679 13.8697 66.5164 14.9559 68.8344 17.1489C71.2705 19.4779 72.4984 22.2733 72.5182 25.5349L72.6375 45.1635L67.0872 47.8339L66.7942 47.8357L66.659 25.5705C66.6453 23.3245 66.0201 21.6876 64.7834 20.6599C63.5661 19.6126 62.0785 19.0943 60.3208 19.105C58.563 19.1157 57.0721 19.6521 55.848 20.7142C54.6434 21.7567 54.0479 23.401 54.0615 25.647L54.1808 45.2756L48.6305 47.9461L48.3375 47.9478ZM86.3269 35.4122C86.3406 37.6582 86.9561 39.3049 88.1734 40.3522C89.4101 41.3799 90.9074 41.8884 92.6651 41.8777C94.4229 41.867 95.9041 41.3404 97.1088 40.2979C98.3328 39.2358 98.938 37.5817 98.9244 35.3356L98.8638 25.3749C98.8502 23.1288 98.225 21.492 96.9883 20.4643C95.771 19.417 94.2834 18.8987 92.5256 18.9094C90.7678 18.92 89.2769 19.4564 88.0529 20.5186C86.8483 21.5611 86.2528 23.2054 86.2664 25.4514L86.3269 35.4122ZM80.4677 35.4477L80.4072 25.487C80.3876 22.2644 81.5815 19.4544 83.9888 17.0569C86.241 14.8361 89.076 13.7154 92.494 13.6946C95.072 13.679 97.1766 14.4963 98.8078 16.1465L98.7322 3.6956L104.282 1.02511L104.575 1.02334L104.784 35.3C104.803 38.5226 103.609 41.3327 101.202 43.7302C98.9498 45.9509 96.1147 47.0717 92.6968 47.0924C89.318 47.113 86.4695 46.0267 84.1515 43.8337C81.7154 41.5047 80.4875 38.7094 80.4677 35.4477ZM138.139 35.0974L137.947 3.45739L143.497 0.78691L143.79 0.78513L143.882 15.8727C145.356 14.2036 147.451 13.3608 150.166 13.3443C153.544 13.3238 156.393 14.41 158.711 16.603C161.147 18.932 162.375 21.7273 162.395 24.989L162.455 34.9497C162.475 38.1723 161.281 40.9824 158.874 43.3798C156.621 45.6006 153.786 46.7214 150.368 46.7421C146.99 46.7626 144.141 45.6764 141.823 43.4834C139.387 41.1544 138.159 38.3591 138.139 35.0974ZM143.999 35.0618C144.012 37.3079 144.628 38.9546 145.845 40.0019C147.082 41.0296 148.579 41.538 150.337 41.5274C152.095 41.5167 153.576 40.9901 154.78 39.9476C156.004 38.8855 156.61 37.2314 156.596 34.9853L156.535 25.0246C156.522 22.7785 155.897 21.1417 154.66 20.114C153.443 19.0667 151.955 18.5484 150.197 18.559C148.439 18.5697 146.949 19.1061 145.724 20.1683C144.52 21.2108 143.924 22.855 143.938 25.1011L143.999 35.0618ZM170.344 34.9018L170.284 24.9411C170.264 21.7185 171.458 18.9084 173.865 16.5109C176.117 14.2902 178.953 13.1694 182.37 13.1487C185.749 13.1281 188.598 14.2144 190.916 16.4074C193.352 18.7364 194.58 21.5317 194.6 24.7934L194.66 34.7541C194.68 37.9767 193.486 40.7867 191.078 43.1842C188.826 45.405 185.991 46.5257 182.573 46.5465C179.194 46.567 176.346 45.4808 174.028 43.2878C171.592 40.9588 170.364 38.1635 170.344 34.9018ZM176.203 34.8662C176.217 37.1123 176.833 38.759 178.05 39.8063C179.287 40.8339 180.784 41.3424 182.542 41.3317C184.299 41.3211 185.781 40.7945 186.985 39.752C188.209 38.6898 188.814 37.0357 188.801 34.7897L188.74 24.8289C188.727 22.5829 188.101 20.946 186.865 19.9184C185.647 18.8711 184.16 18.3527 182.402 18.3634C180.644 18.3741 179.153 18.9105 177.929 19.9726C176.725 21.0151 176.129 22.6594 176.143 24.9055L176.203 34.8662ZM202.549 34.7062L202.488 24.7454C202.469 21.5228 203.663 18.7128 206.07 16.3153C208.322 14.0946 211.157 12.9738 214.575 12.953C217.954 12.9325 220.803 14.0188 223.121 16.2117C225.557 18.5407 226.785 21.3361 226.804 24.5977L226.865 34.5585C226.885 37.7811 225.691 40.5911 223.283 42.9886C221.031 45.2093 218.196 46.3301 214.778 46.3509C211.399 46.3714 208.551 45.2852 206.233 43.0922C203.797 40.7632 202.569 37.9678 202.549 34.7062ZM208.408 34.6706C208.422 36.9166 209.037 38.5633 210.255 39.6106C211.491 40.6383 212.989 41.1468 214.746 41.1361C216.504 41.1254 217.985 40.5989 219.19 39.5564C220.414 38.4942 221.019 36.8401 221.006 34.5941L220.945 24.6333C220.932 22.3873 220.306 20.7504 219.07 19.7227C217.852 18.6754 216.365 18.1571 214.607 18.1678C212.849 18.1785 211.358 18.7149 210.134 19.777C208.93 20.8195 208.334 22.4638 208.348 24.7098L208.408 34.6706ZM238.696 46.7915L238.525 18.7256L230.996 18.7714L230.994 18.4784L233.337 13.425L238.493 13.3937L238.429 2.84703L243.979 0.176549L244.272 0.17477L244.352 13.3581L251.881 13.3124L251.883 13.6053L249.541 18.6587L244.385 18.6901L244.539 44.1193L238.989 46.7898L238.696 46.7915ZM303.078 32.2498L303.089 34.0955C303.109 37.3181 301.915 40.1281 299.508 42.5256C297.255 44.7463 294.42 45.8671 291.003 45.8879C287.624 45.9084 284.775 44.8221 282.457 42.6292C280.021 40.3002 278.793 37.5048 278.773 34.2432L278.713 24.2824C278.693 21.0403 279.887 18.2303 282.295 15.8523C284.547 13.6316 287.382 12.5108 290.8 12.49C294.139 12.4697 296.988 13.556 299.345 15.7487C301.781 18.0191 303.007 20.5313 303.024 23.2851L303.024 23.3437L297.474 26.0142L297.181 26.016L297.17 24.1703C297.156 21.9243 296.531 20.2874 295.294 19.2597C294.077 18.2124 292.589 17.6941 290.831 17.7048C289.074 17.7155 287.583 18.2519 286.359 19.314C285.154 20.3565 284.558 22.0008 284.572 24.2468L284.633 34.2076C284.646 36.4536 285.262 38.1003 286.479 39.1476C287.716 40.1753 289.213 40.6838 290.971 40.6731C292.729 40.6624 294.21 40.1261 295.414 39.0641C296.638 38.0019 297.245 36.6212 297.235 34.9221L302.785 32.2516L303.078 32.2498ZM333.302 43.5801L327.752 46.2506L327.459 46.2524L327.44 43.1762C325.888 44.8459 323.793 45.6887 321.157 45.7047C317.504 45.7269 314.656 44.6406 312.611 42.446C310.567 40.2513 309.535 37.6501 309.517 34.6424C309.498 31.5174 310.585 28.8545 312.779 26.6537C314.895 24.5314 317.643 23.46 321.021 23.4395C323.424 23.4249 325.528 24.2422 327.335 25.8914C327.314 22.4344 326.695 20.1628 325.477 19.0764C324.299 18.0288 322.802 17.5106 320.985 17.5216L313.866 17.5649L313.865 17.2719L316.178 12.3359L320.954 12.3069C324.372 12.2861 327.22 13.3723 329.499 15.5656C331.935 17.9141 333.163 20.7094 333.183 23.9515L333.302 43.5801ZM315.259 34.6075C315.27 36.3457 315.806 37.7781 316.867 38.9044C317.889 39.992 319.319 40.5302 321.154 40.5191C323.068 40.5074 324.549 39.9418 325.597 38.8221C326.762 37.565 327.339 36.1552 327.33 34.5928C327.319 32.835 326.705 31.4129 325.487 30.3265C324.27 29.2402 322.811 28.7021 321.112 28.7125C319.335 28.7233 317.912 29.3081 316.845 30.4669C315.778 31.6258 315.249 33.006 315.259 34.6075ZM341.207 46.1688L341.072 23.9036C341.052 20.681 342.246 17.871 344.654 15.4735C346.906 13.2528 349.741 12.132 353.159 12.1112C356.264 12.0924 358.956 13.2089 361.236 15.4607C361.668 15.8877 362.062 16.3932 362.417 16.977C362.765 16.4084 363.153 15.908 363.58 15.4757C366.007 13.1758 368.686 12.0169 371.615 11.9991C374.994 11.9786 377.843 13.0648 380.161 15.2578C382.597 17.5868 383.825 20.3822 383.845 23.6438L383.964 43.2724L378.413 45.9428L378.121 45.9446L377.985 23.6794C377.972 21.4334 377.346 19.7965 376.11 18.7688C374.892 17.7215 373.405 17.2032 371.647 17.2139C369.889 17.2246 368.398 17.761 367.174 18.8231C365.97 19.8656 365.374 21.5099 365.388 23.7559L365.507 43.3845L359.957 46.0549L359.664 46.0567L359.529 23.7915C359.515 21.5455 358.89 19.9086 357.653 18.8809C356.436 17.8336 354.948 17.3153 353.19 17.326C351.433 17.3367 349.942 17.8731 348.718 18.9352C347.513 19.9777 346.918 21.622 346.931 23.868L347.05 43.4966L341.5 46.1671L341.207 46.1688ZM411.655 23.4749C411.641 21.2288 411.016 19.592 409.779 18.5643C408.562 17.517 407.074 16.9987 405.317 17.0094C403.559 17.02 402.068 17.5564 400.844 18.6186C399.639 19.6611 399.044 21.3054 399.058 23.5514L399.118 33.5122C399.132 35.7582 399.747 37.4049 400.964 38.4522C402.201 39.4799 403.698 39.9884 405.456 39.9777C407.214 39.967 408.695 39.4404 409.9 38.3979C411.124 37.3358 411.729 35.6817 411.715 33.4356L411.655 23.4749ZM417.514 23.4393L417.575 33.4C417.594 36.6226 416.4 39.4327 413.993 41.8302C411.741 44.0509 408.906 45.1717 405.488 45.1924C402.91 45.2081 400.805 44.3908 399.174 42.7405L399.25 55.1914L393.699 57.8619L393.406 57.8637L393.198 23.587C393.179 20.3644 394.373 17.5544 396.78 15.1569C399.032 12.9361 401.867 11.8154 405.285 11.7946C408.664 11.7741 411.512 12.8603 413.83 15.0533C416.266 17.3823 417.494 20.1776 417.514 23.4393ZM424.59 34.1485L430.14 31.478L430.433 31.4762L430.447 33.8199C430.46 36.0074 431.105 37.6636 432.382 38.7887C433.599 39.8556 435.067 40.3838 436.786 40.3733C438.778 40.3612 440.327 39.717 441.432 38.4408C442.596 37.1055 443.173 35.6567 443.164 34.0942C443.154 32.4146 442.521 31.0903 441.265 30.1213C440.185 29.288 438.659 28.8774 436.687 28.8893C433.21 28.9105 430.462 28.1654 428.441 26.6542C426.655 25.3369 425.754 23.2818 425.737 20.4889C425.721 17.7741 426.947 15.5205 429.417 13.7281C431.342 12.3297 433.74 11.6218 436.611 11.6043C439.365 11.5876 441.763 12.4324 443.804 14.1388C445.375 15.4769 446.351 17.0335 446.733 18.8086L441.183 21.4791L440.89 21.4809L440.885 20.6313C440.879 19.6157 440.58 18.7483 439.99 18.0292C439.045 16.824 437.704 16.2267 435.965 16.2372C434.579 16.2457 433.449 16.692 432.575 17.5762C431.721 18.4408 431.297 19.4004 431.303 20.4551C431.311 21.7051 431.844 22.6979 432.904 23.4337C433.492 23.8403 434.743 24.0378 436.657 24.0261C440.622 24.0021 443.606 24.8922 445.609 26.6964C447.789 28.6559 448.889 31.2176 448.908 34.3816C448.923 36.9206 447.815 39.3493 445.583 41.6676C443.467 43.868 440.544 44.9795 436.814 45.0021C433.435 45.0227 430.588 44.1024 428.272 42.2415C425.838 40.2836 424.61 37.5859 424.59 34.1485ZM0.185144 120.242L0.0498978 97.9764C0.0303226 94.7538 1.22421 91.9438 3.63157 89.5463C5.88375 87.3256 8.71879 86.2048 12.1367 86.1841C15.5155 86.1635 18.364 87.2498 20.682 89.4428C23.1181 91.7718 24.346 94.5671 24.3659 97.8287L24.4851 117.457L18.9348 120.128L18.6418 120.13L18.5066 97.8643C18.4929 95.6183 17.8678 93.9814 16.631 92.9538C15.4137 91.9064 13.9262 91.3881 12.1684 91.3988C10.4106 91.4095 8.91968 91.9459 7.69564 93.008C6.49101 94.0505 5.89552 95.6948 5.90916 97.9408L6.0284 117.569L0.478108 120.24L0.185144 120.242ZM56.62 105.748L56.6312 107.594C56.6508 110.816 55.4569 113.627 53.0496 116.024C50.7974 118.245 47.9623 119.365 44.5444 119.386C41.1656 119.407 38.3171 118.321 35.9991 116.128C33.563 113.799 32.3351 111.003 32.3153 107.742L32.2548 97.7808C32.2352 94.5582 33.4291 91.7482 35.8364 89.3507C38.0886 87.1299 40.9237 86.0092 44.3416 85.9884C47.6618 85.9683 50.5103 87.0545 52.8869 89.2471C55.3225 91.498 56.5487 94.0101 56.5656 96.7835L56.5659 96.8421L38.7802 110.954C39.0772 111.617 39.4907 112.171 40.0208 112.617C41.2577 113.664 42.755 114.182 44.5128 114.172C46.2705 114.161 47.7517 113.624 48.9562 112.562C50.1802 111.5 50.7871 110.12 50.7768 108.42L56.3271 105.75L56.62 105.748ZM38.1583 105.04L50.3439 95.0342C50.0256 94.0791 49.5327 93.3203 48.8652 92.758C47.6283 91.7108 46.131 91.1925 44.3732 91.2032C42.6155 91.2139 41.1246 91.7503 39.9005 92.8124C38.6959 93.8549 38.1004 95.4992 38.114 97.7452L38.1583 105.04ZM86.8441 117.078L81.2938 119.749L81.0008 119.751L80.9822 116.675C79.4298 118.344 77.3352 119.187 74.6986 119.203C71.0463 119.225 68.1978 118.139 66.1532 115.944C64.1086 113.75 63.0772 111.149 63.0589 108.141C63.0399 105.016 64.1273 102.353 66.321 100.152C68.437 98.0298 71.1845 96.9584 74.5633 96.9379C76.9656 96.9233 79.0702 97.7406 80.8772 99.3898C80.8562 95.9328 80.2369 93.6612 79.0193 92.5748C77.8411 91.5272 76.3437 91.009 74.5274 91.02L67.4084 91.0633L67.4066 90.7703L69.7204 85.8343L74.4957 85.8053C77.9136 85.7845 80.762 86.8707 83.041 89.064C85.4772 91.4125 86.7052 94.2078 86.7249 97.4499L86.8441 117.078ZM68.801 108.106C68.8115 109.844 69.3476 111.276 70.4091 112.403C71.4314 113.49 72.8605 114.029 74.6964 114.017C76.6104 114.006 78.0914 113.44 79.1393 112.321C80.3035 111.063 80.8809 109.654 80.8714 108.091C80.8607 106.333 80.2466 104.911 79.0291 103.825C77.8115 102.739 76.3531 102.201 74.6539 102.211C72.8766 102.222 71.4544 102.806 70.3872 103.965C69.32 105.124 68.7912 106.504 68.801 108.106ZM94.749 119.667L94.6138 97.402C94.5942 94.1794 95.7881 91.3694 98.1955 88.9719C100.448 86.7512 103.283 85.6304 106.701 85.6096L110.656 85.5856L110.657 85.8786L108.344 90.8146L106.732 90.8244C104.974 90.8351 103.484 91.3715 102.26 92.4336C101.055 93.4761 100.459 95.1204 100.473 97.3664C100.473 97.3664 100.513 103.909 100.592 116.995L95.042 119.665L94.749 119.667ZM137.405 107.103L137.286 87.4747L142.836 84.8042L143.129 84.8024L143.264 107.068C143.278 109.314 143.893 110.96 145.11 112.008C146.347 113.035 147.844 113.544 149.602 113.533C151.36 113.522 152.841 112.996 154.046 111.953C155.27 110.891 155.875 109.237 155.861 106.991L155.742 87.3626L161.292 84.6921L161.585 84.6903L161.794 118.967C161.813 122.19 160.619 125 158.212 127.397C155.96 129.618 153.125 130.739 149.707 130.759L140.684 130.814L140.682 130.521L142.996 125.585L149.675 125.545C151.433 125.534 152.924 124.998 154.148 123.935C155.352 122.873 155.948 121.229 155.934 119.003L155.917 116.219C154.482 117.888 152.388 118.731 149.634 118.748C146.294 118.768 143.446 117.682 141.089 115.489C138.653 113.199 137.425 110.404 137.405 107.103ZM171.074 106.899L171.014 96.9379C170.994 93.7153 172.188 90.9053 174.596 88.5078C176.848 86.2871 179.683 85.1663 183.101 85.1456C186.48 85.125 189.328 86.2113 191.646 88.4043C194.082 90.7333 195.31 93.5286 195.33 96.7902L195.39 106.751C195.41 109.974 194.216 112.784 191.809 115.181C189.557 117.402 186.722 118.523 183.304 118.543C179.925 118.564 177.076 117.478 174.758 115.285C172.322 112.956 171.094 110.16 171.074 106.899ZM176.934 106.863C176.947 109.109 177.563 110.756 178.78 111.803C180.017 112.831 181.514 113.339 183.272 113.329C185.03 113.318 186.511 112.791 187.716 111.749C188.94 110.687 189.545 109.033 189.531 106.787L189.471 96.8258C189.457 94.5798 188.832 92.9429 187.595 91.9153C186.378 90.8679 184.89 90.3496 183.132 90.3603C181.375 90.371 179.884 90.9074 178.66 91.9695C177.455 93.012 176.86 94.6563 176.873 96.9024L176.934 106.863ZM227.46 84.2902L227.595 106.555C227.615 109.778 226.421 112.588 224.014 114.985C221.761 117.206 218.926 118.327 215.508 118.348C212.13 118.368 209.281 117.282 206.963 115.089C204.527 112.76 203.299 109.965 203.279 106.703L203.16 87.0745L208.71 84.404L209.003 84.4023L209.139 106.667C209.152 108.914 209.768 110.56 210.985 111.608C212.222 112.635 213.719 113.144 215.477 113.133C217.235 113.122 218.716 112.596 219.92 111.553C221.144 110.491 221.75 108.837 221.736 106.591L221.617 86.9624L227.167 84.2919L227.46 84.2902ZM259.758 78.7911C259.07 78.0922 258.723 77.2544 258.717 76.2779C258.711 75.2818 259.048 74.4301 259.727 73.7229C260.407 73.0156 261.235 72.659 262.211 72.6531C263.188 72.6471 264.02 72.9937 264.708 73.6926C265.396 74.3916 265.742 75.2391 265.749 76.2352C265.754 77.2117 265.418 78.0536 264.738 78.7609C264.059 79.4681 263.231 79.8247 262.255 79.8307C261.278 79.8366 260.446 79.4901 259.758 78.7911ZM259.561 118.666L259.367 86.7331L264.917 84.0626L265.21 84.0609L265.404 115.994L259.854 118.664L259.561 118.666ZM274.774 118.574L274.639 96.3085C274.619 93.0859 275.813 90.2759 278.22 87.8784C280.472 85.6576 283.307 84.5369 286.725 84.5161C290.104 84.4956 292.953 85.5818 295.271 87.7748C297.707 90.1038 298.935 92.8991 298.955 96.1608L299.074 115.789L293.523 118.46L293.231 118.462L293.095 96.1964C293.082 93.9503 292.456 92.3135 291.22 91.2858C290.002 90.2385 288.515 89.7202 286.757 89.7309C284.999 89.7415 283.508 90.2779 282.284 91.3401C281.08 92.3826 280.484 94.0268 280.498 96.2729L280.617 115.901L275.067 118.572L274.774 118.574ZM360.465 100.768L360.477 102.818C360.503 107.057 359.206 110.531 356.586 113.243C353.829 116.092 350.225 117.529 345.772 117.556C341.319 117.584 337.697 116.19 334.906 113.374C332.253 110.695 330.914 107.236 330.888 102.998L330.79 86.8852C330.764 82.647 332.062 79.1723 334.682 76.461C337.438 73.6122 341.043 72.1742 345.496 72.1472C350.105 72.1192 353.727 73.5132 356.361 76.3293C359.015 79.1453 360.353 82.4087 360.376 86.1195L354.826 88.79L354.533 88.7918L354.52 86.7411C354.504 84.1239 353.788 82.0091 352.372 80.3966C350.622 78.3955 348.34 77.4034 345.528 77.4205C342.715 77.4376 340.446 78.4573 338.72 80.4795C337.324 82.1091 336.634 84.2325 336.649 86.8496L336.747 102.963C336.763 105.58 337.479 107.695 338.895 109.307C340.646 111.308 342.927 112.3 345.74 112.283C348.552 112.266 350.821 111.246 352.547 109.224C353.944 107.595 354.635 105.666 354.622 103.44L360.172 100.769L360.465 100.768ZM392.173 115.224L386.623 117.894L386.33 117.896L386.311 114.82C384.758 116.49 382.664 117.332 380.027 117.348C376.375 117.371 373.527 116.284 371.482 114.09C369.437 111.895 368.406 109.294 368.388 106.286C368.369 103.161 369.456 100.498 371.65 98.2974C373.766 96.1751 376.513 95.1037 379.892 95.0832C382.294 95.0686 384.399 95.8859 386.206 97.5351C386.185 94.0782 385.566 91.8065 384.348 90.7201C383.17 89.6726 381.672 89.1543 379.856 89.1653L372.737 89.2086L372.735 88.9156L375.049 83.9796L379.824 83.9506C383.242 83.9298 386.091 85.0161 388.37 87.2093C390.806 89.5578 392.034 92.3531 392.054 95.5953L392.173 115.224ZM374.13 106.251C374.14 107.989 374.676 109.422 375.738 110.548C376.76 111.636 378.189 112.174 380.025 112.163C381.939 112.151 383.42 111.586 384.468 110.466C385.632 109.209 386.21 107.799 386.2 106.236C386.189 104.479 385.575 103.057 384.358 101.97C383.14 100.884 381.682 100.346 379.983 100.356C378.205 100.367 376.783 100.952 375.716 102.111C374.649 103.269 374.12 104.65 374.13 106.251ZM401.74 77.9287C401.052 77.2297 400.705 76.392 400.699 75.4154C400.693 74.4194 401.03 73.5677 401.709 72.8604C402.388 72.1532 403.216 71.7966 404.193 71.7906C405.169 71.7847 406.002 72.1312 406.689 72.8302C407.377 73.5291 407.724 74.3766 407.73 75.3727C407.736 76.3493 407.399 77.1912 406.72 77.8984C406.041 78.6057 405.213 78.9623 404.236 78.9682C403.26 78.9742 402.428 78.6276 401.74 77.9287ZM401.543 117.804L401.349 85.8707L406.899 83.2002L407.192 83.1984L407.386 115.131L401.836 117.802L401.543 117.804ZM416.756 117.711L416.62 95.446C416.601 92.2235 417.795 89.4134 420.202 87.0159C422.454 84.7952 425.289 83.6744 428.707 83.6537L432.662 83.6296L432.664 83.9226L430.35 88.8586L428.739 88.8684C426.981 88.8791 425.49 89.4155 424.266 90.4776C423.061 91.5201 422.466 93.1644 422.48 95.4105C422.48 95.4105 422.519 101.953 422.599 115.039L417.049 117.709L416.756 117.711ZM436.874 105.284L436.814 95.3234C436.794 92.1008 437.988 89.2908 440.395 86.8933C442.648 84.6725 445.483 83.5518 448.901 83.531C452.279 83.5105 455.128 84.5967 457.446 86.7897C459.882 89.1187 461.11 91.914 461.13 95.1757L461.19 105.136C461.21 108.359 460.016 111.169 457.608 113.567C455.356 115.787 452.521 116.908 449.103 116.929C445.725 116.949 442.876 115.863 440.558 113.67C438.122 111.341 436.894 108.546 436.874 105.284ZM442.733 105.249C442.747 107.495 443.363 109.141 444.58 110.189C445.817 111.216 447.314 111.725 449.072 111.714C450.829 111.703 452.311 111.177 453.515 110.134C454.739 109.072 455.345 107.418 455.331 105.172L455.27 95.2113C455.257 92.9652 454.632 91.3284 453.395 90.3007C452.178 89.2534 450.69 88.7351 448.932 88.7457C447.174 88.7564 445.683 89.2928 444.459 90.355C443.255 91.3975 442.659 93.0417 442.673 95.2878L442.733 105.249Z" fill="black" fill-opacity="0.3"/>
</svg>
