<svg width="591" height="226" viewBox="0 0 591 226" fill="none" xmlns="http://www.w3.org/2000/svg">
<path d="M59.751 157.405C1.09654 118 -21.3557 86.5 83.0966 86.5C150.867 86.5 194.099 94.9703 279.159 75.5939C364.219 56.2175 417.482 8.1353 510.889 19.2588C604.296 30.3823 537.9 157.054 481.855 194.372C419.602 235.824 185.002 241.552 59.751 157.405Z" fill="url(#paint0_linear)"/>
<path d="M78.3762 125V32.3242L85.1047 29.1504H125.349V29.7852L120.207 40.7031H91.0715V71.2988H125.349V71.9336L120.207 82.8516H91.0715V113.447H135.949V114.082L130.808 125H78.3762ZM196.27 96.8799V100.879C196.27 107.861 193.646 113.934 188.399 119.097C183.49 123.879 177.333 126.27 169.927 126.27C162.606 126.27 156.449 123.879 151.455 119.097C146.208 114.019 143.584 107.946 143.584 100.879V79.2969C143.584 72.2721 146.208 66.1995 151.455 61.0791C156.364 56.2972 162.522 53.9062 169.927 53.9062C177.163 53.9062 183.321 56.2972 188.399 61.0791C193.646 66.0303 196.27 71.4893 196.27 77.4561V77.583L184.209 83.2959H183.575V79.2969C183.575 74.4303 182.242 70.8757 179.576 68.6328C176.952 66.3477 173.736 65.2051 169.927 65.2051C166.119 65.2051 162.881 66.3477 160.215 68.6328C157.592 70.8757 156.28 74.4303 156.28 79.2969V100.879C156.28 105.745 157.592 109.321 160.215 111.606C162.881 113.849 166.119 114.971 169.927 114.971C173.736 114.971 176.952 113.828 179.576 111.543C182.242 109.258 183.575 106.274 183.575 102.593L195.635 96.8799H196.27ZM213.363 100.879V79.2969C213.363 72.3145 215.987 66.2419 221.234 61.0791C226.143 56.2972 232.3 53.9062 239.706 53.9062C247.027 53.9062 253.184 56.2972 258.177 61.0791C263.425 66.1572 266.048 72.2298 266.048 79.2969V100.879C266.048 107.861 263.425 113.934 258.177 119.097C253.269 123.879 247.111 126.27 239.706 126.27C232.385 126.27 226.227 123.879 221.234 119.097C215.987 114.019 213.363 107.946 213.363 100.879ZM226.058 100.879C226.058 105.745 227.37 109.321 229.994 111.606C232.66 113.849 235.897 114.971 239.706 114.971C243.514 114.971 246.73 113.849 249.354 111.606C252.02 109.321 253.353 105.745 253.353 100.879V79.2969C253.353 74.4303 252.02 70.8757 249.354 68.6328C246.73 66.3477 243.514 65.2051 239.706 65.2051C235.897 65.2051 232.66 66.3477 229.994 68.6328C227.37 70.8757 226.058 74.4303 226.058 79.2969V100.879ZM335.827 52.6367V100.879C335.827 107.861 333.203 113.934 327.956 119.097C323.047 123.879 316.89 126.27 309.484 126.27C302.163 126.27 296.006 123.879 291.013 119.097C285.765 114.019 283.141 107.946 283.141 100.879V58.3496L295.202 52.6367H295.837V100.879C295.837 105.745 297.149 109.321 299.772 111.606C302.438 113.849 305.676 114.971 309.484 114.971C313.293 114.971 316.509 113.849 319.133 111.606C321.799 109.321 323.132 105.745 323.132 100.879V58.3496L335.192 52.6367H335.827ZM352.92 127.539V79.2969C352.92 72.3145 355.544 66.2419 360.791 61.0791C365.7 56.2972 371.857 53.9062 379.263 53.9062H387.832V54.541L382.754 65.2051H379.263C375.454 65.2051 372.217 66.3477 369.551 68.6328C366.927 70.8757 365.615 74.4303 365.615 79.2969C365.615 79.2969 365.615 93.4733 365.615 121.826L353.555 127.539H352.92ZM394.769 102.593L406.829 96.8799H407.464V101.958C407.464 106.698 408.839 110.295 411.59 112.749C414.214 115.076 417.388 116.24 421.112 116.24C425.428 116.24 428.792 114.865 431.204 112.114C433.743 109.237 435.013 106.105 435.013 102.72C435.013 99.0804 433.659 96.2028 430.95 94.0869C428.623 92.2673 425.322 91.3574 421.048 91.3574C413.516 91.3574 407.57 89.707 403.211 86.4062C399.36 83.5286 397.435 79.0641 397.435 73.0127C397.435 67.1305 400.122 62.264 405.496 58.4131C409.686 55.4085 414.891 53.9062 421.112 53.9062C427.078 53.9062 432.262 55.7682 436.663 59.4922C440.049 62.4121 442.143 65.7975 442.947 69.6484L430.887 75.3613H430.252V73.5205C430.252 71.32 429.617 69.4368 428.348 67.8711C426.317 65.2474 423.418 63.9355 419.652 63.9355C416.647 63.9355 414.193 64.8877 412.288 66.792C410.426 68.654 409.495 70.7275 409.495 73.0127C409.495 75.721 410.638 77.8792 412.923 79.4873C414.193 80.376 416.901 80.8203 421.048 80.8203C429.639 80.8203 436.092 82.7881 440.408 86.7236C445.106 90.9977 447.454 96.5625 447.454 103.418C447.454 108.919 445.021 114.167 440.155 119.16C435.542 123.9 429.194 126.27 421.112 126.27C413.791 126.27 407.633 124.238 402.64 120.176C397.392 115.902 394.769 110.041 394.769 102.593ZM515.329 96.8799V100.879C515.329 107.861 512.705 113.934 507.457 119.097C502.549 123.879 496.391 126.27 488.986 126.27C481.665 126.27 475.508 123.879 470.514 119.097C465.267 114.019 462.643 107.946 462.643 100.879V79.2969C462.643 72.3145 465.267 66.2419 470.514 61.0791C475.423 56.2972 481.58 53.9062 488.986 53.9062C496.18 53.9062 502.337 56.2972 507.457 61.0791C512.705 65.988 515.329 71.4469 515.329 77.4561V77.583L476.608 107.925C477.243 109.364 478.131 110.57 479.274 111.543C481.94 113.828 485.177 114.971 488.986 114.971C492.794 114.971 496.01 113.828 498.634 111.543C501.3 109.258 502.633 106.274 502.633 102.593L514.694 96.8799H515.329ZM475.338 95.1025L501.871 73.584C501.194 71.5104 500.136 69.86 498.698 68.6328C496.032 66.3477 492.794 65.2051 488.986 65.2051C485.177 65.2051 481.94 66.3477 479.274 68.6328C476.65 70.8757 475.338 74.4303 475.338 79.2969V95.1025Z" fill="#1A791E"/>
<path d="M345.507 150.181C418.101 152.786 483.266 165.222 506.775 171.114C483.266 198.558 475.744 200.419 441.421 212.513C407.099 224.608 320.118 230.189 226.084 220.421C150.858 212.606 99.766 184.293 83.6235 171.114C90.5193 169.253 107.696 164.229 121.237 159.019C138.163 152.507 254.765 146.925 345.507 150.181Z" fill="black" fill-opacity="0.06"/>
<defs>
<linearGradient id="paint0_linear" x1="268.399" y1="17.6096" x2="268.399" y2="210.187" gradientUnits="userSpaceOnUse">
<stop stop-color="#B7D909"/>
<stop offset="1" stop-color="#63C019"/>
</linearGradient>
</defs>
</svg>
